<?xml version="1.0" encoding="UTF-8"?>
<svg id="Layer_1" xmlns="http://www.w3.org/2000/svg" version="1.1" viewBox="0 0 608.1 669.9">
  <!-- Generator: Adobe Illustrator 29.1.0, SVG Export Plug-In . SVG Version: 2.1.0 Build 142)  -->
  <defs>
    <style>
      .st0 {
        fill: #231f20;
      }
    </style>
  </defs>
  <path class="st0" d="M580.1,272.4v34.4l-13.1-13.1,13.1-21.4h0ZM544.6,296.3l-17.3,28.2h20.6l9.4-15.3,15.3,15.3h24.8v-85.3h-17.6l-25.9,41.8M484.1,239l-52.8,85.3h20.7l32.1-51.9v46.9l-3.1,5h20.7l52.5-85.3h-20.7l-31.8,52v-47l3-5h-20.6ZM403.9,239v85.3h17.6v-85.3h-17.6ZM394.2,306.7h-45.7v-67.7h-17.6v85.3h63.3v-17.6h0ZM288.5,258.5c3,1.3,5.6,3.1,8,5.4,2.2,2.2,4.1,5,5.4,8,1.3,3,2,6.3,2,9.8s-.7,6.8-2,9.8-3.1,5.8-5.4,8-5,4.1-8,5.4-6.3,2-9.7,2-6.8-.7-9.8-2-5.8-3.1-8-5.4-4.1-5-5.4-8-2-6.3-2-9.8.7-6.8,2-9.8,3.1-5.6,5.4-8c2.2-2.2,5-4.1,8-5.4s6.3-2,9.8-2,6.7.7,9.7,2ZM262.2,242.4c-5.2,2.2-9.7,5.2-13.6,9.2-3.9,3.8-6.9,8.4-9.2,13.6s-3.4,10.7-3.4,16.6,1.2,11.4,3.4,16.5c2.2,5.2,5.2,9.7,9.2,13.6,3.9,3.8,8.4,6.9,13.6,9.2s10.7,3.4,16.6,3.4,11.4-1.2,16.5-3.4c5.2-2.2,9.7-5.2,13.5-9.2,3.8-3.8,6.8-8.4,9-13.6s3.4-10.7,3.4-16.5-1.2-11.5-3.4-16.6c-2.2-5.2-5.2-9.7-9-13.6-3.8-3.8-8.3-6.9-13.5-9.2s-10.7-3.4-16.5-3.4-11.5,1.2-16.6,3.4h0ZM193.3,256.6c2.5,0,4.6.3,6.3.5,1.8.3,3.3.7,4.5,1.4,1.2.7,2.1,1.7,2.6,2.9.5,1.3.9,2.9.9,5v.8c0,2.1-.3,3.8-.9,5s-1.6,2.1-2.8,2.8l-10.6-18.3h0ZM162.7,239l21.9,38h-15.2v47.3h17.6v-29.9h8l17.2,29.9h20.3l-19.1-33c3.9-1.7,6.9-4.5,8.9-8.1s2.9-9,2.9-16v-.8c0-6.2-.8-11-2.2-14.7-1.4-3.7-3.8-6.4-6.8-8.3-3-2-6.9-3.1-11.7-3.7-4.7-.5-10.3-.8-16.8-.8h-24.9ZM135.4,272.4v34.4l-13.1-13.1,13.1-21.4h0ZM95.5,291.7l4.5,4.5-17.3,28.2h20.6l9.4-15.3,15.3,15.3h24.8v-80.3l.5-5h-18.1l-25.9,41.8-4.5-4.5-9.4,15.5h.1ZM32.7,242.4c-5.2,2.2-9.7,5.2-13.6,9.2-3.8,3.8-6.9,8.4-9.2,13.6s-3.4,10.7-3.4,16.5,1.2,11.5,3.4,16.6c2.2,5.2,5.2,9.7,9.2,13.6s8.4,6.9,13.6,9.2,10.7,3.4,16.6,3.4,11.3-1,16.4-3.3,9.6-5.2,13.5-9l-15.5-9.8c-2.1,1.4-4.3,2.6-6.8,3.4-2.4.8-5,1.2-7.6,1.2s-6.8-.7-9.8-2c-3.1-1.3-5.8-3.1-8-5.4s-4.1-5-5.4-8-2-6.3-2-9.8.7-6.8,2-9.8,3.1-5.6,5.4-8,5-4.1,8-5.4c3.1-1.3,6.4-2,9.8-2s6,.5,8.8,1.7,5.2,2.6,7.5,4.5l15.6-9.2c-3.9-4.5-8.6-8-14.1-10.6s-11.4-3.9-17.8-3.9-11.5,1.2-16.6,3.4h.1Z"/>
  <path class="st0" d="M136.5,365c3,1.3,5.6,3.1,8,5.4,2.2,2.2,4.1,5,5.4,8s2,6.3,2,9.8-.7,6.8-2,9.8-3.1,5.8-5.4,8-5,4.1-8,5.4-6.3,2-9.7,2-6.8-.7-9.8-2-5.8-3.1-8-5.4-4.1-5-5.4-8-2-6.3-2-9.8.7-6.8,2-9.8,3.1-5.6,5.4-8c2.2-2.2,5-4.1,8-5.4s6.3-2,9.8-2,6.7.7,9.7,2ZM110.1,348.8c-5.2,2.2-9.7,5.2-13.6,9.2-3.9,3.8-6.9,8.4-9.2,13.6s-3.4,10.7-3.4,16.6,1.2,11.4,3.4,16.5c2.2,5.2,5.2,9.7,9.2,13.6,3.9,3.8,8.4,6.9,13.6,9.2s10.7,3.4,16.6,3.4,11.4-1.2,16.5-3.4c5.2-2.2,9.7-5.2,13.5-9.2,3.8-3.8,6.8-8.4,9-13.6s3.4-10.7,3.4-16.5-1.2-11.5-3.4-16.6c-2.2-5.2-5.2-9.7-9-13.6-3.8-3.8-8.3-6.9-13.5-9.2s-10.7-3.4-16.5-3.4-11.5,1.2-16.6,3.4ZM32.7,348.8c-5.2,2.2-9.7,5.2-13.6,9.2s-6.9,8.4-9.2,13.6-3.4,10.7-3.4,16.5,1.2,11.5,3.4,16.6c2.2,5.2,5.2,9.7,9.2,13.6s8.4,6.9,13.6,9.2,10.7,3.4,16.6,3.4,11.3-1,16.4-3.3,9.6-5.2,13.5-9l-15.5-9.8c-2.1,1.4-4.3,2.6-6.8,3.4-2.4.8-5,1.2-7.6,1.2s-6.8-.7-9.8-2c-3.1-1.3-5.8-3.1-8-5.4s-4.1-5-5.4-8-2-6.3-2-9.8.7-6.8,2-9.8,3.1-5.6,5.4-8c2.2-2.2,5-4.1,8-5.4,3.1-1.3,6.4-2,9.8-2s6,.5,8.8,1.7,5.2,2.6,7.5,4.5l15.6-9.2c-3.9-4.5-8.6-8-14.1-10.6-5.5-2.6-11.4-3.9-17.8-3.9s-11.5,1.2-16.6,3.4h.1Z"/>
  <polyline class="st0" points="252.4 378.9 252.4 430.8 255.5 430.8 234.2 430.8 200.8 378.9 200.8 430.8 182.6 430.8 182.6 350.5 182.2 345.5 200.8 345.5 234.1 397.4 234.2 350.5 233.9 345.5 252.4 345.5"/>
  <path class="st0" d="M601.6,411.9h-45.7v-67.7h-17.6v85.3h63.3v-17.6h0ZM493.3,363.7c3,1.3,5.6,3.1,8,5.4,2.2,2.2,4.1,5,5.4,8s2,6.3,2,9.8-.7,6.8-2,9.8-3.1,5.8-5.4,8c-2.2,2.2-5,4.1-8,5.4-3,1.3-6.3,2-9.7,2s-6.8-.7-9.8-2c-3-1.3-5.8-3.1-8-5.4s-4.1-5-5.4-8-2-6.3-2-9.8.7-6.8,2-9.8,3.1-5.6,5.4-8c2.2-2.2,5-4.1,8-5.4,3-1.3,6.3-2,9.8-2s6.7.7,9.7,2ZM466.9,347.6c-5.2,2.2-9.7,5.2-13.6,9.2-3.9,3.8-6.9,8.4-9.2,13.6s-3.4,10.7-3.4,16.6,1.2,11.4,3.4,16.5c2.2,5.2,5.2,9.7,9.2,13.6,3.9,3.8,8.4,6.9,13.6,9.2s10.7,3.4,16.6,3.4,11.4-1.2,16.5-3.4c5.2-2.2,9.7-5.2,13.5-9.2,3.8-3.8,6.8-8.4,9-13.6,2.2-5.2,3.4-10.7,3.4-16.5s-1.2-11.5-3.4-16.6c-2.2-5.2-5.2-9.7-9-13.6-3.8-3.8-8.3-6.9-13.5-9.2s-10.7-3.4-16.5-3.4-11.5,1.2-16.6,3.4h0ZM393.1,361.8c2.5,0,4.6.3,6.3.5,1.8.3,3.3.7,4.5,1.4,1.2.7,2.1,1.7,2.6,2.9.5,1.3.9,2.9.9,5v.9c0,2.1-.3,3.8-.9,5-.7,1.2-1.6,2.1-2.8,2.8l-10.6-18.3h0ZM362.4,344.2l21.9,38h-15.2v47.3h17.6v-29.9h8l17.2,29.9h20.3l-19.1-33c3.9-1.7,6.9-4.5,8.9-8.1s2.9-9,2.9-16v-.9c0-6.2-.8-11-2.2-14.7-1.4-3.7-3.8-6.4-6.8-8.3-3-2-6.9-3.1-11.7-3.7-4.7-.5-10.3-.8-16.8-.8h-24.9ZM338.2,344.2h-70.7v17.6h33.8v67.7h17.6v-67.7h33.8l-14.4-17.6Z"/>
</svg>
