<?xml version="1.0" encoding="UTF-8"?>
<svg id="Layer_1" xmlns="http://www.w3.org/2000/svg" version="1.1" viewBox="0 0 654.6 809.9">
  <!-- Generator: Adobe Illustrator 29.1.0, SVG Export Plug-In . SVG Version: 2.1.0 Build 142)  -->
  <defs>
    <style>
      .st0 {
        fill: #44bd32;
      }

      .st0, .st1 {
        display: none;
      }

      .st2 {
        fill: #231f20;
      }

      .st1 {
        fill: #f5f6fa;
      }
    </style>
  </defs>
  <path class="st0" d="M311.1,669.9c-6.5-1.5-13.1-1.4-19.6-2.2-42.5-5.2-83.4-19.3-120-41.5-.2-.1-.3-.3-.6-.7,7.1-4.2,13.8-9.1,20.1-14.5,19.5-16.8,33.8-37.5,45.4-60.4,13.1-26,22-53.3,24.9-82.3,3.1-31.4-.4-62.1-9.3-92.3-5.9-20-13.7-39.3-23.4-57.8-15-29.1-26.3-59.5-30.1-92.1-9.6-82.7,16.2-152.1,80.2-206.2,10.5-8.9,22.4-15.6,36-18.9,6.5-1.5,12.9-1.6,19.2.8,9,3.4,12.8,11.8,9.1,20.7-2.7,6.5-7.3,11.7-11.7,17-9.8,11.6-19.6,23.2-27.1,36.5-17.4,30.9-16.7,62.5-3.3,94.5,9.4,22.6,23.5,42.2,38.8,61.1,30.8,37.8,59.6,77,83.2,119.8,18.6,33.8,33.2,69.1,40.8,107.1,6.1,30.2,7.2,61.2,3.3,91.7-3.3,25-8,49.7-18.6,72.9-4,9.1-9,17.7-15,25.6-1.8,2.4-4.3,4.2-7.2,5.1-19.9,6.6-40.4,11.2-61.2,13.9-5.9.8-11.9.6-17.7,2.1h-36.1ZM382.7,599.1c18.7,0,33.9-15.2,33.9-33.9s-15.2-33.9-33.9-33.9c-18.7,0-33.9,15.1-33.9,33.8,0,18.7,15.1,34,33.9,34,0,0,0,0,0,0ZM309.6,531.3c-18.7,0-33.9,15.2-33.9,33.9s15.2,33.9,33.9,33.9c18.7,0,33.9-15.1,33.9-33.8,0-18.7-15.2-33.9-33.9-34h0ZM329.3,502.6c16,.1,29.1-12.8,29.2-28.8.1-16-12.8-29.1-28.8-29.2-16-.1-29.1,12.8-29.2,28.8,0,0,0,0,0,0,0,16,12.8,29,28.8,29.1h0ZM391.7,442.3c-16-.2-29.2,12.6-29.3,28.6-.2,16,12.6,29.2,28.6,29.3,16,.2,29.2-12.6,29.3-28.6,0,0,0,0,0,0,.1-16-12.7-29.1-28.7-29.3h0ZM321.3,368.5c-14.4,0-26,11.6-26.1,25.9,0,14.4,11.6,26,25.9,26.1,14.3,0,25.9-11.4,26.1-25.7.2-14.4-11.3-26.1-25.7-26.3,0,0-.1,0-.2,0h0ZM403,386.2c0-14.4-11.6-26-26-26s-26,11.6-26,26,11.6,26,26,26c0,0,.1,0,.2,0,14.3-.1,25.8-11.7,25.8-26h0ZM349.3,339.8c12.9.1,23.4-10.3,23.5-23.1.1-12.9-10.3-23.4-23.1-23.5-12.9-.1-23.4,10.3-23.5,23.1,0,0,0,.1,0,.2,0,12.8,10.3,23.2,23.1,23.4h0ZM323.9,328.7c0-12.9-10.3-23.4-23.2-23.5-12.9,0-23.4,10.3-23.5,23.2,0,12.8,10.2,23.3,23,23.5,12.9.1,23.6-10.2,23.7-23.2ZM314.7,278c11.7,0,21.1-9.3,21.2-21,0-11.7-9.3-21.1-21-21.2s-21.1,9.3-21.2,21c0,0,0,0,0,0,0,11.6,9.4,21.1,21,21.1ZM272.7,253.1c-11.7,0-21.1,9.3-21.2,21s9.3,21.1,21,21.2c11.7,0,21.1-9.3,21.2-21,0,0,0,0,0,0,0-11.6-9.4-21-21-21.1h0ZM285.4,186.8c-10.9-.2-20,8.1-20.3,18.4-.1,10.9,8.6,19.9,19.5,20,0,0,0,0,.1,0,10.9.2,20.1-8.1,20.3-18.4.1-10.9-8.6-19.9-19.5-20,0,0,0,0,0,0h0ZM242.9,196.6c-10.9,0-19.9,8.3-20,18.7-.1,10.8,8.8,19.7,19.9,19.7s20.1-8.5,20.1-19-9-19.3-20-19.4ZM267.9,138.6c-9.9,0-18,8-17.9,17.5s8.3,17.2,18.2,17.2,18-8,17.9-17.5-8.2-17.2-18.2-17.2h0ZM229.7,176.2c9.9,0,18.1-7.9,18-17.4s-8.2-17.3-18.1-17.3-18,7.8-18,17.4,8.2,17.3,18.2,17.2h0ZM265,108.1c.2-8.7-6.7-16-15.4-16.2-8.7-.2-16,6.7-16.2,15.4-.2,8.7,6.7,16,15.4,16.2.2,0,.3,0,.5,0,8.6,0,15.7-6.8,15.8-15.4h0ZM270.4,56.4c-7.5,0-13.6,5.7-13.7,12.7s6.1,12.9,13.5,12.9,13.6-5.6,13.7-12.7-6-12.9-13.4-12.9h0ZM307.3,41c0-5.6-4.8-10.2-10.8-10.3s-11,4.5-11,10.1,4.9,10.2,10.8,10.3,10.9-4.5,11-10.1Z"/>
  <path class="st1" d="M630.4,347c3,23-3.8,76.5-8.8,95.8-6.9,26.6-17.4,52.1-31.3,75.8-9.4,16-20.1,31.1-32,45.3-6.4,7.7-13.8,14.5-20.8,21.7-1.4,1.4-2.3,1.3-3.7,0-14.2-14.3-28.4-28.5-42.6-42.6-2.3-2.3-1-3.6.7-5.2,14-13.5,26.3-28.5,36.7-44.9,25.7-40.9,38.4-88.5,36.4-136.8-.8-18.5-3.8-36.8-8.8-54.5-4.1-14.6-9.6-28.8-16.4-42.3-8.3-16.3-18.5-31.5-30.2-45.5-18-21.6-39.7-39.8-64-53.8-22.3-12.9-46.5-21.9-71.8-26.7-18.6-3.5-37.4-5-56.3-4.5-2.8,0-5.4,1-8.2.9-2.6-.1-3.6-1.1-3.5-3.7.5-13.8,2.7-27.3,8.6-40,3.4-7.4,7.4-14.6,12-21.3.9-1.5,2.6-2.4,4.3-2.3,14.3.2,28.6,1.4,42.8,3.6,18.9,2.8,37.5,7.4,55.5,13.8,17.7,6.3,34.8,14.2,51,23.7,16.1,9.2,31.2,20,45.2,32.1,24.2,20.9,45,45.4,61.8,72.7,9.4,15.4,17.5,31.6,24,48.4,6.4,16.4,11.3,33.4,14.7,50.7,1.9,9.9,3.4,19.9,4.3,30"/>
  <path class="st1" d="M25.4,399c-9-53,9.5-119.5,20.6-147,10.7-26.4,25.1-51.1,42.8-73.4,10.5-13.3,22-25.7,34.5-37.1,17-15.7,35.9-29.3,56.1-40.5,7.1-3.9,14.5-7.4,21.8-11.2,1.4-.7,2.9-1.2,5.3-2.1-3,6.4-5.6,11.8-8,17.4-7,16.2-12,33.2-14.9,50.6-1,6.3-2.2,12.5-2.2,18.9,0,4.6-3.1,7.1-6.2,9.6-10.7,8.8-20.6,18.7-29.5,29.4-9.2,10.9-17.5,22.6-24.6,34.9-10.9,19-19.1,39.5-24.2,60.9-3.2,13.5-5.3,27.2-6.2,41-.7,8.7-.8,17.5-.4,26.3.8,18.2,3.7,36.3,8.6,53.8,4.1,14.9,9.7,29.3,16.7,43,8.2,16.1,18.2,31.1,29.8,44.9,6.4,7.5,13.2,14.8,20.3,21.6,2.1,2,1.8,3.2-.1,5.1-13.8,13.7-27.6,27.5-41.3,41.3-2.2,2.2-3.5,2.3-5.8,0-40-37.8-68.9-85.9-83.7-138.9-4.5-16.2-7.2-32.6-9.6-49.1"/>
  <path class="st1" d="M302.2,40.6c-.3,3.2-3.1,5.6-6.3,5.3-2.9-.2-5.2-2.6-5.4-5.4.3-3.2,3.1-5.6,6.3-5.3,2.9.2,5.2,2.6,5.4,5.4Z"/>
  <path class="st1" d="M382.4,588.5c-14.1,0-23.1-9.8-23.1-25s10.4-21.7,25.3-21.7,21.4,10.6,21.4,25.6c0,11.6-10.6,21.1-23.6,21.1Z"/>
  <path class="st1" d="M332.9,565.5c0,14.1-9.7,23-25.1,23s-21.6-10.5-21.6-25.4c0-12.5,10.7-21.2,25.7-21.5,9.1-.2,22.8,11.1,21,23.8Z"/>
  <path class="st1" d="M329.8,454.4c11.4,0,19,7.9,19,19.9s-8,18.6-20.2,18.6c-10.9,0-18.2-8.2-18.2-20.2,0-10.6,8.2-18.2,19.4-18.2Z"/>
  <path class="st1" d="M391.6,452.1c11.5,0,19,7.9,19,19.8s-8,18.6-20.2,18.6c-10.9,0-18.2-8.1-18.2-20.2,0-10.6,8.2-18.2,19.4-18.2Z"/>
  <path class="st1" d="M321.1,411.4c-10.5,0-16.9-6.6-16.9-17.5,0-10.1,6.8-16.4,17.6-16.4s16.3,6.9,16.3,17.7c0,9.6-6.9,16.2-17.1,16.2Z"/>
  <path class="st1" d="M360.1,386c0-9.9,7.1-17.2,17.2-17.3,8.5,0,17.7,7.7,16.9,18.1-.8,10-7,16.3-17.9,16.3s-16.2-6.9-16.2-17.1Z"/>
  <path class="st1" d="M363.9,316.6c1.1,7-6.6,14.8-14.4,14.3-8.7-.6-14.3-5.8-14.3-14.8,0-8.5,5.8-14,14.6-14,8.5,0,14.1,5.8,14.1,14.5Z"/>
  <path class="st1" d="M300.7,314.2c7-1.1,14.8,6.6,14.3,14.4-.6,8.7-5.8,14.3-14.8,14.3-8.5,0-14-5.8-14-14.6,0-8.5,5.8-14.1,14.5-14.1Z"/>
  <path class="st1" d="M314.5,269.7c-7.7,0-12.5-5-12.5-13.1,0-7.7,5-12.5,13.1-12.5,7.7,0,12.5,5,12.5,13.1,0,7.7-5,12.5-13.1,12.5Z"/>
  <path class="st1" d="M272.4,287c-7.8,0-12.6-5-12.6-13s5-12.6,13-12.6,12.6,5,12.6,13c0,7.9-5,12.7-13,12.6Z"/>
  <path class="st1" d="M285.1,217c-7.1,0-11.7-4.4-11.7-11.1s4.4-10.8,11.9-10.8c7,0,11.5,4.5,11.5,11.2,0,6.5-4.5,10.6-11.7,10.6Z"/>
  <path class="st1" d="M243.1,226.8c-7.4,0-12-4.2-12-11.2s4.5-10.7,11.6-10.7,11.8,4.3,11.8,11-4.4,10.9-11.4,10.9Z"/>
  <path class="st1" d="M278.7,156c0,5.9-4.2,9.8-10.8,9.7-6.2,0-10.3-4-10.3-9.9s4.2-9.8,10.8-9.7c6.2,0,10.3,4,10.3,9.9Z"/>
  <path class="st1" d="M229.9,149.1c6.2,0,10.3,4,10.3,9.8s-4.2,9.8-10.8,9.8c-6.3,0-10.4-4-10.3-10.2,0-5.7,4.4-9.4,10.8-9.4Z"/>
  <path class="st1" d="M249.1,116c-5.3,0-8.1-2.8-8.1-8s2.8-7.9,8.6-7.8c5.2,0,8,2.9,8,8.2-.1,5-3,7.7-8.5,7.7Z"/>
  <path class="st1" d="M270.4,75.2c-4.6,0-7-2.2-6.8-6.4,0-3.7,2.8-5.8,7.2-5.7,4.1,0,6.4,2.3,6.4,6.1,0,4.1-2.3,6.1-6.7,6Z"/>
  <path class="st1" d="M45.8,809.5c-4.2,0-8.3-.6-12.3-1.8-3.9-1.1-7.6-2.8-11-4.9-3.4-2.1-6.5-4.7-9.2-7.7-2.8-3-5.2-6.3-7.1-9.9-2-3.7-3.5-7.6-4.6-11.7-2.2-8.6-2.2-17.6,0-26.2,1-4.1,2.6-8,4.6-11.8,1.9-3.6,4.3-6.9,7.1-9.9,2.7-2.9,5.9-5.5,9.3-7.6,3.4-2.1,7.1-3.8,11-4.9,8.1-2.3,16.6-2.3,24.7,0,3.9,1.1,7.6,2.8,11,4.9,3.4,2.1,6.5,4.7,9.2,7.7,2.8,3,5.2,6.3,7.1,9.9,8.3,15.5,8.3,34.1,0,49.6-1.9,3.6-4.3,6.9-7.1,9.9-2.7,2.9-5.8,5.5-9.2,7.7-3.4,2.1-7.1,3.8-11,4.9-4,1.2-8.2,1.7-12.4,1.7ZM45.8,789.9c3.5,0,6.9-.8,10-2.3,3-1.6,5.7-3.7,7.8-6.4,2.2-2.8,3.9-6,5-9.4,2.4-7.4,2.4-15.4,0-22.8-1.1-3.4-2.8-6.6-5.1-9.4-2.1-2.6-4.8-4.8-7.8-6.4-6.2-3.1-13.5-3.1-19.8,0-3,1.6-5.6,3.7-7.8,6.4-2.2,2.8-4,6-5.1,9.4-1.2,3.7-1.9,7.6-1.8,11.4,0,3.9.6,7.7,1.8,11.3,1.1,3.4,2.9,6.6,5.1,9.4,2.1,2.6,4.8,4.8,7.8,6.4,3.1,1.6,6.4,2.4,9.9,2.3Z"/>
  <path class="st1" d="M150.6,765.4c-1.6-2.1-3.7-3.8-6-5.1-2.4-1.2-5.1-1.7-7.8-1.5-2.2-.2-4.5.2-6.6,1-1.9.8-3.7,2-5.1,3.5-1.5,1.5-2.6,3.4-3.3,5.3-.8,2.2-1.2,4.6-1.2,7,0,2.2.4,4.4,1.2,6.5.8,2,1.9,3.8,3.4,5.3,1.5,1.5,3.2,2.7,5.1,3.5,2.1.9,4.2,1.4,6.5,1.5,1.8-.1,3.6-.5,5.3-1.2,1.5-.6,3-1.5,4.3-2.5,1.2-1,2.3-2.2,3.2-3.4.8-1.1,1.5-2.3,2.1-3.6l17.2,4.8c-.8,2.8-2.1,5.4-3.7,7.8-1.8,2.8-4.1,5.3-6.8,7.4-6.5,5.2-14.6,7.9-22.9,7.7-4.7,0-9.4-.9-13.7-2.7-4-1.7-7.7-4.2-10.8-7.4-3-3.2-5.4-6.9-7-11-1.7-4.3-2.6-8.9-2.5-13.6,0-4.6.8-9.1,2.6-13.3,1.7-4,4.1-7.7,7.2-10.8,3.1-3.1,6.8-5.5,10.8-7.2,4.3-1.7,9-2.5,13.6-2.3,3.4-.2,6.9.2,10.2,1.2,3.3,1,6.5,2.4,9.4,4.3h12.4v18.8h-17.2Z"/>
  <path class="st1" d="M200.3,743h12.9v16.4h-13.1v27.4c-.1,1.3,0,2.6.3,3.8.2.8.6,1.6,1.1,2.3.4.6,1,1,1.7,1.2.7.2,1.5.3,2.3.3,1.4,0,2.8-.1,4.2-.5,1.2-.3,2.4-.7,3.6-1.1l2.7,12.1c-2.2,1.4-4.6,2.4-7.1,3.2-3,.8-6.1,1.2-9.3,1.2-2.5,0-5-.4-7.3-1.3-2.3-.9-4.4-2.2-6.1-4-1.8-1.9-3.3-4.2-4.2-6.7-1.1-3-1.6-6.1-1.5-9.3l.2-28.7h-9.3v-16.4h9.4v-15.5c.1,0,19.6-9.2,19.6-9.2v24.8Z"/>
  <path class="st1" d="M225.4,775.2c0-4.5.8-9,2.6-13.2,3.3-8.2,9.8-14.7,18-18.1,8.9-3.6,18.9-3.6,27.8,0,4.1,1.7,7.8,4.2,10.9,7.3,3.1,3.1,5.5,6.8,7.1,10.8,1.7,4.2,2.6,8.7,2.5,13.2,0,4.5-.8,9.1-2.5,13.3-3.2,8.3-9.7,14.9-17.9,18.2-9.1,3.6-19.2,3.6-28.2,0-8.2-3.4-14.6-9.9-17.8-18.1-1.7-4.2-2.5-8.8-2.5-13.4ZM244.1,775.2c0,2.3.4,4.6,1.2,6.8.8,2,1.9,3.8,3.4,5.3,1.4,1.5,3.1,2.7,5,3.5,1.9.8,4,1.3,6.1,1.2,2.1,0,4.2-.4,6.2-1.2,1.9-.8,3.6-2,4.9-3.5,1.4-1.6,2.5-3.4,3.3-5.3.8-2.2,1.2-4.5,1.2-6.8,0-2.4-.4-4.8-1.2-7-.7-2-1.8-3.8-3.3-5.3-1.4-1.5-3.1-2.6-4.9-3.3-2-.8-4.1-1.2-6.2-1.1-2.1,0-4.2.3-6.1,1.1-1.9.8-3.6,1.9-5,3.3-1.5,1.5-2.6,3.3-3.4,5.3-.9,2.2-1.3,4.6-1.2,7Z"/>
  <path class="st1" d="M303.8,713h36.4c4.2,0,8.4.6,12.5,1.7,11.7,3.3,21.7,11.1,27.7,21.6,2,3.6,3.6,7.4,4.6,11.3,2.2,8.3,2.2,17,0,25.2-1.1,4-2.6,7.8-4.6,11.3-2,3.5-4.4,6.7-7.2,9.6-8.6,8.9-20.6,14-33,13.9h-36.4v-17.1h7.6v-60.4h-7.6v-17.2ZM332.1,730.2v60.4h7.9c3.3,0,6.6-.8,9.6-2.4,3-1.6,5.7-3.8,7.8-6.5,2.3-2.9,4.1-6.1,5.2-9.6,1.3-3.8,2-7.9,1.9-11.9,0-4-.6-8-1.9-11.8-1.2-3.5-3-6.7-5.2-9.6-2.1-2.6-4.8-4.8-7.8-6.4-3-1.5-6.2-2.3-9.6-2.3h-7.9Z"/>
  <path class="st1" d="M435.3,804.3c-1.5.9-2.8,1.7-4,2.3-1.2.6-2.4,1.1-3.6,1.6-1.2.4-2.5.7-3.8.9-1.4.2-2.8.3-4.2.3-3.5,0-7.1-.5-10.4-1.6-2.8-.9-5.5-2.4-7.8-4.4-2.1-1.8-3.7-4-4.8-6.6-2.3-5.3-2.3-11.3,0-16.5,1.1-2.5,2.9-4.8,5-6.5,2.4-1.9,5.1-3.4,8-4.2,3.5-1.1,7.1-1.6,10.7-1.5,2.7,0,5.4.1,8.1.5,2.4.3,4.7.7,6.8,1.2v-2c0-1.5-.3-2.9-.9-4.2-.6-1.2-1.5-2.2-2.6-2.9-1.2-.8-2.6-1.4-4.1-1.7-1.7-.4-3.4-.5-5.2-.5-3.5,0-7,.3-10.3,1.2-3,.8-5.9,1.9-8.6,3.3l-6-12.1c4.1-2.9,8.6-5.1,13.4-6.7,4.8-1.6,9.8-2.3,14.8-2.3,3.8,0,7.6.5,11.2,1.4,3.2.8,6.2,2.3,8.8,4.4,2.5,2.1,4.5,4.8,5.8,7.9,1.5,3.8,2.2,7.8,2.1,11.9v23.6h8.7v17.1h-27v-3.5ZM421,794.6c2.8,0,5.5-.5,8.1-1.4,2.2-.8,4.3-2,6.2-3.5v-8.2h-15c-1,0-1.9.1-2.8.4-.9.3-1.7.7-2.5,1.2-.7.5-1.3,1.2-1.8,2-.5.8-.7,1.8-.7,2.8,0,1.8.7,3.6,2.1,4.8,1.4,1.3,3.5,1.9,6.4,1.9Z"/>
  <path class="st1" d="M515.8,760c-.8-1-1.7-1.8-2.8-2.4-1.4-.8-3-1.3-4.6-1.7-2-.4-4.1-.6-6.2-.6-.9,0-1.9,0-2.8.2-1,.1-1.9.4-2.8.8-.8.3-1.5.9-2.1,1.5-.6.7-.9,1.6-.8,2.5,0,.5,0,1,.2,1.4.2.5.5.9.8,1.3.5.5,1.1.9,1.7,1.2.9.4,1.9.7,2.8.8l11.7,2.3c3.7.7,7.2,1.7,10.7,3.1,2.6,1,4.9,2.5,6.9,4.4,1.7,1.5,3,3.4,3.8,5.6.8,2.1,1.2,4.4,1.2,6.6,0,3.4-.8,6.8-2.6,9.8-1.7,2.8-4.1,5.2-6.8,7-2.9,1.9-6.1,3.3-9.5,4.2-3.5.9-7.1,1.4-10.7,1.4-2.1,0-4.2-.1-6.3-.4-1.7-.3-3.4-.7-5.1-1.2-1.4-.5-2.8-1-4.1-1.8-1.2-.7-2.3-1.4-3.3-2.3h-11.3v-17.4h17.7v.4c0,1.1.4,2.3,1.1,3.2.8.9,1.7,1.7,2.8,2.3,1.2.7,2.5,1.1,3.9,1.4,1.5.3,3.1.5,4.6.5,3.8,0,6.5-.5,8.2-1.5,1.5-.7,2.5-2.1,2.6-3.8,0-1.2-.4-2.3-1.2-3.1-1.3-1.1-2.8-1.7-4.4-2l-12-2.6c-7.5-1.5-13.2-3.9-17.1-7.3-3.8-3.3-5.9-8.1-5.8-13.1,0-3,.7-5.9,2.2-8.5,1.5-2.6,3.5-4.8,5.9-6.6,2.7-1.9,5.6-3.3,8.8-4.2,3.5-1,7.1-1.5,10.8-1.5,2.3,0,4.7.1,7,.5,1.9.3,3.7.7,5.5,1.2,1.5.4,2.9,1,4.3,1.8,1.1.6,2.2,1.4,3.3,2.2h10.9v17.4h-16.1c0-1.1-.3-2.1-1-2.9Z"/>
  <path class="st1" d="M542.9,710.5h29.2v38.5c2.4-2.2,5.1-4,8.1-5.3,3.1-1.3,6.4-1.9,9.7-1.9,7.8,0,13.8,2.2,17.9,6.5,4.1,4.4,6.2,10.7,6.2,19.1v23.2h9.5v17.2h-28.9v-35.9c0-3.6-.9-6.5-2.7-8.6-1.7-2-4.3-3.2-6.9-3.1-2.1,0-4.2.6-6.1,1.6-2.4,1.2-4.7,2.7-6.7,4.6v24.4h9.5v17.1h-38.7v-17.1h10v-63h-10v-17.1Z"/>
  <path class="st0" d="M630.3,797.7c0-6.7,5.4-12.2,12-12.2,0,0,0,0,.1,0,1.6,0,3.2.3,4.7,1,1.4.6,2.8,1.5,3.9,2.6,3.5,3.5,4.5,8.8,2.6,13.3-.6,1.4-1.5,2.8-2.6,3.9-1.1,1.1-2.4,2-3.8,2.6-1.5.7-3.1,1-4.7,1-1.7,0-3.3-.3-4.8-1-1.4-.6-2.7-1.5-3.9-2.6-1.1-1.1-2-2.4-2.6-3.8-.6-1.5-.9-3.2-.9-4.8Z"/>
  <path class="st2" d="M595.5,284.3v34.4l-13.1-13.1,13.1-21.4h0ZM560,308.1l-17.3,28.2h20.6l9.4-15.3,15.3,15.3h24.8v-85.3h-17.6l-25.9,41.8M499.5,250.9l-52.8,85.3h20.7l32.1-51.9v46.9l-3.1,5h20.7l52.5-85.3h-20.7l-31.8,52v-47l3-5h-20.6ZM419.3,250.9v85.3h17.6v-85.3h-17.6ZM409.6,318.6h-45.7v-67.7h-17.6v85.3h63.3v-17.6h0ZM303.9,270.4c3,1.3,5.6,3.1,8,5.4,2.2,2.2,4.1,5,5.4,8,1.3,3,2,6.3,2,9.8s-.7,6.8-2,9.8-3.1,5.8-5.4,8-5,4.1-8,5.4-6.3,2-9.7,2-6.8-.7-9.8-2-5.8-3.1-8-5.4-4.1-5-5.4-8-2-6.3-2-9.8.7-6.8,2-9.8,3.1-5.6,5.4-8c2.2-2.2,5-4.1,8-5.4s6.3-2,9.8-2,6.7.7,9.7,2ZM277.6,254.3c-5.2,2.2-9.7,5.2-13.6,9.2-3.9,3.8-6.9,8.4-9.2,13.6s-3.4,10.7-3.4,16.6,1.2,11.4,3.4,16.5c2.2,5.2,5.2,9.7,9.2,13.6,3.9,3.8,8.4,6.9,13.6,9.2s10.7,3.4,16.6,3.4,11.4-1.2,16.5-3.4c5.2-2.2,9.7-5.2,13.5-9.2,3.8-3.8,6.8-8.4,9-13.6s3.4-10.7,3.4-16.5-1.2-11.5-3.4-16.6c-2.2-5.2-5.2-9.7-9-13.6-3.8-3.8-8.3-6.9-13.5-9.2s-10.7-3.4-16.5-3.4-11.5,1.2-16.6,3.4h0ZM208.7,268.4c2.5,0,4.6.3,6.3.5,1.8.3,3.3.7,4.5,1.4,1.2.7,2.1,1.7,2.6,2.9.5,1.3.9,2.9.9,5v.8c0,2.1-.3,3.8-.9,5s-1.6,2.1-2.8,2.8l-10.6-18.3h0ZM178,250.9l21.9,38h-15.2v47.3h17.6v-29.9h8l17.2,29.9h20.3l-19.1-33c3.9-1.7,6.9-4.5,8.9-8.1s2.9-9,2.9-16v-.8c0-6.2-.8-11-2.2-14.7-1.4-3.7-3.8-6.4-6.8-8.3-3-2-6.9-3.1-11.7-3.7-4.7-.5-10.3-.8-16.8-.8h-24.9ZM150.8,284.3v34.4l-13.1-13.1,13.1-21.4h0ZM110.8,303.5l4.5,4.5-17.3,28.2h20.6l9.4-15.3,15.3,15.3h24.8v-80.3l.5-5h-18.1l-25.9,41.8-4.5-4.5-9.4,15.5h.1ZM48.1,254.3c-5.2,2.2-9.7,5.2-13.6,9.2-3.8,3.8-6.9,8.4-9.2,13.6s-3.4,10.7-3.4,16.5,1.2,11.5,3.4,16.6c2.2,5.2,5.2,9.7,9.2,13.6s8.4,6.9,13.6,9.2,10.7,3.4,16.6,3.4,11.3-1,16.4-3.3,9.6-5.2,13.5-9l-15.5-9.8c-2.1,1.4-4.3,2.6-6.8,3.4-2.4.8-5,1.2-7.6,1.2s-6.8-.7-9.8-2c-3.1-1.3-5.8-3.1-8-5.4s-4.1-5-5.4-8-2-6.3-2-9.8.7-6.8,2-9.8,3.1-5.6,5.4-8,5-4.1,8-5.4c3.1-1.3,6.4-2,9.8-2s6,.5,8.8,1.7,5.2,2.6,7.5,4.5l15.6-9.2c-3.9-4.5-8.6-8-14.1-10.6s-11.4-3.9-17.8-3.9-11.5,1.2-16.6,3.4h.1Z"/>
  <path class="st2" d="M151.8,376.9c3,1.3,5.6,3.1,8,5.4,2.2,2.2,4.1,5,5.4,8s2,6.3,2,9.8-.7,6.8-2,9.8-3.1,5.8-5.4,8-5,4.1-8,5.4-6.3,2-9.7,2-6.8-.7-9.8-2-5.8-3.1-8-5.4-4.1-5-5.4-8-2-6.3-2-9.8.7-6.8,2-9.8,3.1-5.6,5.4-8c2.2-2.2,5-4.1,8-5.4s6.3-2,9.8-2,6.7.7,9.7,2ZM125.5,360.6c-5.2,2.2-9.7,5.2-13.6,9.2-3.9,3.8-6.9,8.4-9.2,13.6s-3.4,10.7-3.4,16.6,1.2,11.4,3.4,16.5c2.2,5.2,5.2,9.7,9.2,13.6,3.9,3.8,8.4,6.9,13.6,9.2s10.7,3.4,16.6,3.4,11.4-1.2,16.5-3.4c5.2-2.2,9.7-5.2,13.5-9.2,3.8-3.8,6.8-8.4,9-13.6s3.4-10.7,3.4-16.5-1.2-11.5-3.4-16.6c-2.2-5.2-5.2-9.7-9-13.6-3.8-3.8-8.3-6.9-13.5-9.2s-10.7-3.4-16.5-3.4-11.5,1.2-16.6,3.4ZM48.1,360.6c-5.2,2.2-9.7,5.2-13.6,9.2s-6.9,8.4-9.2,13.6-3.4,10.7-3.4,16.5,1.2,11.5,3.4,16.6c2.2,5.2,5.2,9.7,9.2,13.6s8.4,6.9,13.6,9.2,10.7,3.4,16.6,3.4,11.3-1,16.4-3.3,9.6-5.2,13.5-9l-15.5-9.8c-2.1,1.4-4.3,2.6-6.8,3.4-2.4.8-5,1.2-7.6,1.2s-6.8-.7-9.8-2c-3.1-1.3-5.8-3.1-8-5.4s-4.1-5-5.4-8-2-6.3-2-9.8.7-6.8,2-9.8,3.1-5.6,5.4-8c2.2-2.2,5-4.1,8-5.4,3.1-1.3,6.4-2,9.8-2s6,.5,8.8,1.7,5.2,2.6,7.5,4.5l15.6-9.2c-3.9-4.5-8.6-8-14.1-10.6-5.5-2.6-11.4-3.9-17.8-3.9s-11.5,1.2-16.6,3.4h.1Z"/>
  <polyline class="st2" points="267.7 390.8 267.7 442.6 270.9 442.6 249.5 442.6 216.1 390.8 216.1 442.6 197.9 442.6 197.9 362.3 197.5 357.4 216.1 357.4 249.4 409.2 249.5 362.3 249.3 357.4 267.7 357.4"/>
  <path class="st2" d="M616.9,423.8h-45.7v-67.7h-17.6v85.3h63.3v-17.6h0ZM508.6,375.6c3,1.3,5.6,3.1,8,5.4,2.2,2.2,4.1,5,5.4,8s2,6.3,2,9.8-.7,6.8-2,9.8-3.1,5.8-5.4,8c-2.2,2.2-5,4.1-8,5.4-3,1.3-6.3,2-9.7,2s-6.8-.7-9.8-2c-3-1.3-5.8-3.1-8-5.4s-4.1-5-5.4-8-2-6.3-2-9.8.7-6.8,2-9.8,3.1-5.6,5.4-8c2.2-2.2,5-4.1,8-5.4,3-1.3,6.3-2,9.8-2s6.7.7,9.7,2ZM482.3,359.5c-5.2,2.2-9.7,5.2-13.6,9.2-3.9,3.8-6.9,8.4-9.2,13.6s-3.4,10.7-3.4,16.6,1.2,11.4,3.4,16.5c2.2,5.2,5.2,9.7,9.2,13.6,3.9,3.8,8.4,6.9,13.6,9.2s10.7,3.4,16.6,3.4,11.4-1.2,16.5-3.4c5.2-2.2,9.7-5.2,13.5-9.2,3.8-3.8,6.8-8.4,9-13.6,2.2-5.2,3.4-10.7,3.4-16.5s-1.2-11.5-3.4-16.6c-2.2-5.2-5.2-9.7-9-13.6-3.8-3.8-8.3-6.9-13.5-9.2s-10.7-3.4-16.5-3.4-11.5,1.2-16.6,3.4h0ZM408.4,373.6c2.5,0,4.6.3,6.3.5,1.8.3,3.3.7,4.5,1.4,1.2.7,2.1,1.7,2.6,2.9.5,1.3.9,2.9.9,5v.9c0,2.1-.3,3.8-.9,5-.7,1.2-1.6,2.1-2.8,2.8l-10.6-18.3h0ZM377.8,356.1l21.9,38h-15.2v47.3h17.6v-29.9h8l17.2,29.9h20.3l-19.1-33c3.9-1.7,6.9-4.5,8.9-8.1s2.9-9,2.9-16v-.9c0-6.2-.8-11-2.2-14.7-1.4-3.7-3.8-6.4-6.8-8.3-3-2-6.9-3.1-11.7-3.7-4.7-.5-10.3-.8-16.8-.8h-24.9ZM353.5,356.1h-70.7v17.6h33.8v67.7h17.6v-67.7h33.8l-14.4-17.6Z"/>
  <path class="st2" d="M298.4,775.7v17.6l-6.7-6.7,6.7-10.9h0ZM280.2,787.9l-8.9,14.4h10.5l4.8-7.9,7.9,7.9h12.7v-43.7h-9l-13.3,21.4M249.2,758.6l-27,43.7h10.6l16.4-26.6v24l-1.6,2.5h10.6l26.9-43.7h-10.6l-16.3,26.6v-24.1l1.5-2.5h-10.5ZM208.1,758.6v43.7h9v-43.7h-9ZM203.2,793.3h-23.4v-34.7h-9v43.7h32.4v-9h0ZM149,768.6c1.5.7,2.9,1.6,4.1,2.8,1.1,1.1,2.1,2.5,2.8,4.1.7,1.5,1,3.2,1,5s-.3,3.5-1,5-1.6,3-2.8,4.1-2.5,2.1-4.1,2.8-3.2,1-5,1-3.5-.3-5-1-3-1.6-4.1-2.8-2.1-2.5-2.8-4.1-1-3.2-1-5,.3-3.5,1-5,1.6-2.9,2.8-4.1c1.1-1.1,2.5-2.1,4.1-2.8s3.2-1,5-1,3.4.3,5,1ZM135.5,760.4c-2.7,1.1-5,2.7-7,4.7-2,1.9-3.6,4.3-4.7,7s-1.7,5.5-1.7,8.5.6,5.8,1.7,8.5c1.1,2.7,2.7,5,4.7,7,2,1.9,4.3,3.6,7,4.7s5.5,1.7,8.5,1.7,5.8-.6,8.5-1.7c2.7-1.1,5-2.7,6.9-4.7,1.9-1.9,3.5-4.3,4.6-7s1.7-5.5,1.7-8.5-.6-5.9-1.7-8.5c-1.1-2.7-2.7-5-4.6-7-1.9-1.9-4.2-3.6-6.9-4.7s-5.5-1.7-8.5-1.7-5.9.6-8.5,1.7h0ZM100.2,767.6c1.3,0,2.3.1,3.2.3.9.1,1.7.3,2.3.7.6.3,1.1.9,1.3,1.5.3.7.5,1.5.5,2.5v.4c0,1.1-.1,1.9-.5,2.5s-.8,1.1-1.4,1.4l-5.4-9.4h0ZM84.5,758.6l11.2,19.5h-7.8v24.2h9v-15.3h4.1l8.8,15.3h10.4l-9.8-16.9c2-.9,3.6-2.3,4.6-4.2s1.5-4.6,1.5-8.2v-.4c0-3.2-.4-5.6-1.1-7.5-.7-1.9-1.9-3.3-3.5-4.2-1.5-1-3.6-1.6-6-1.9-2.4-.3-5.3-.4-8.6-.4h-12.7ZM70.6,775.7v17.6l-6.7-6.7,6.7-10.9h0ZM50.1,785.6l2.3,2.3-8.9,14.4h10.5l4.8-7.9,7.9,7.9h12.7v-41.1l.3-2.5h-9.3l-13.3,21.4-2.3-2.3-4.8,7.9h0ZM18,760.4c-2.7,1.1-5,2.7-7,4.7-1.9,1.9-3.6,4.3-4.7,7s-1.7,5.5-1.7,8.5.6,5.9,1.7,8.5c1.1,2.7,2.7,5,4.7,7s4.3,3.6,7,4.7c2.7,1.1,5.5,1.7,8.5,1.7s5.8-.5,8.4-1.7,4.9-2.7,6.9-4.6l-7.9-5c-1.1.7-2.2,1.3-3.5,1.7-1.2.4-2.5.6-3.9.6s-3.5-.3-5-1c-1.6-.7-3-1.6-4.1-2.8s-2.1-2.5-2.8-4.1-1-3.2-1-5,.3-3.5,1-5,1.6-2.9,2.8-4.1,2.5-2.1,4.1-2.8c1.6-.7,3.3-1,5-1s3.1.3,4.5.9,2.7,1.3,3.8,2.3l8-4.7c-2-2.3-4.4-4.1-7.2-5.4-2.8-1.3-5.8-2-9.1-2s-5.9.6-8.5,1.7h0Z"/>
  <path class="st2" d="M408.7,768.6c1.5.7,2.9,1.6,4.1,2.8,1.1,1.1,2.1,2.5,2.8,4.1s1,3.2,1,5-.3,3.5-1,5-1.6,3-2.8,4.1-2.5,2.1-4.1,2.8-3.2,1-5,1-3.5-.3-5-1-3-1.6-4.1-2.8-2.1-2.5-2.8-4.1-1-3.2-1-5,.3-3.5,1-5,1.6-2.9,2.8-4.1c1.1-1.1,2.5-2.1,4.1-2.8s3.2-1,5-1,3.4.3,5,1ZM395.2,760.3c-2.7,1.1-5,2.7-7,4.7-2,1.9-3.6,4.3-4.7,7s-1.7,5.5-1.7,8.5.6,5.8,1.7,8.5c1.1,2.7,2.7,5,4.7,7,2,1.9,4.3,3.6,7,4.7s5.5,1.7,8.5,1.7,5.8-.6,8.5-1.7c2.7-1.1,5-2.7,6.9-4.7,1.9-1.9,3.5-4.3,4.6-7s1.7-5.5,1.7-8.5-.6-5.9-1.7-8.5c-1.1-2.7-2.7-5-4.6-7-1.9-1.9-4.2-3.6-6.9-4.7s-5.5-1.7-8.5-1.7-5.9.6-8.5,1.7ZM355.6,760.3c-2.7,1.1-5,2.7-7,4.7s-3.6,4.3-4.7,7-1.7,5.5-1.7,8.5.6,5.9,1.7,8.5c1.1,2.7,2.7,5,4.7,7,1.9,1.9,4.3,3.6,7,4.7s5.5,1.7,8.5,1.7,5.8-.5,8.4-1.7,4.9-2.7,6.9-4.6l-7.9-5c-1.1.7-2.2,1.3-3.5,1.7-1.2.4-2.5.6-3.9.6s-3.5-.3-5-1c-1.6-.7-3-1.6-4.1-2.8s-2.1-2.5-2.8-4.1-1-3.2-1-5,.3-3.5,1-5,1.6-2.9,2.8-4.1c1.1-1.1,2.5-2.1,4.1-2.8,1.6-.7,3.3-1,5-1s3.1.3,4.5.9,2.7,1.3,3.8,2.3l8-4.7c-2-2.3-4.4-4.1-7.2-5.4-2.8-1.3-5.8-2-9.1-2s-5.9.6-8.5,1.7h0Z"/>
  <polyline class="st2" points="468.1 775.8 468.1 802.3 469.7 802.3 458.8 802.3 441.7 775.8 441.7 802.3 432.3 802.3 432.3 761.2 432.1 758.6 441.7 758.6 458.7 785.2 458.8 761.2 458.6 758.6 468.1 758.6"/>
  <path class="st2" d="M647,792.7h-23.4v-34.7h-9v43.7h32.4v-9h0ZM591.5,768c1.5.7,2.9,1.6,4.1,2.8,1.1,1.1,2.1,2.5,2.8,4.1s1,3.2,1,5-.3,3.5-1,5-1.6,3-2.8,4.1c-1.1,1.1-2.6,2.1-4.1,2.8-1.5.7-3.2,1-5,1s-3.5-.3-5-1c-1.5-.7-3-1.6-4.1-2.8-1.1-1.1-2.1-2.5-2.8-4.1s-1-3.2-1-5,.3-3.5,1-5,1.6-2.9,2.8-4.1c1.1-1.1,2.5-2.1,4.1-2.8,1.5-.7,3.2-1,5-1s3.4.3,5,1ZM578,759.7c-2.7,1.1-5,2.7-7,4.7-2,1.9-3.6,4.3-4.7,7s-1.7,5.5-1.7,8.5.6,5.8,1.7,8.5c1.1,2.7,2.7,5,4.7,7,2,1.9,4.3,3.6,7,4.7s5.5,1.7,8.5,1.7,5.8-.6,8.5-1.7c2.7-1.1,5-2.7,6.9-4.7,1.9-1.9,3.5-4.3,4.6-7,1.1-2.7,1.7-5.5,1.7-8.5s-.6-5.9-1.7-8.5c-1.1-2.7-2.7-5-4.6-7-1.9-1.9-4.2-3.6-6.9-4.7s-5.5-1.7-8.5-1.7-5.9.6-8.5,1.7h0ZM540.2,767c1.3,0,2.3.1,3.2.3.9.1,1.7.3,2.3.7.6.3,1.1.9,1.3,1.5.3.7.5,1.5.5,2.5v.5c0,1.1-.1,1.9-.5,2.5-.3.6-.8,1.1-1.4,1.4l-5.4-9.4h0ZM524.5,758l11.2,19.5h-7.8v24.2h9v-15.3h4.1l8.8,15.3h10.4l-9.8-16.9c2-.9,3.6-2.3,4.6-4.2s1.5-4.6,1.5-8.2v-.5c0-3.2-.4-5.6-1.1-7.5-.7-1.9-1.9-3.3-3.5-4.2-1.5-1-3.6-1.6-6-1.9-2.4-.3-5.3-.4-8.6-.4h-12.7ZM512.1,758h-36.2v9h17.3v34.7h9v-34.7h17.3l-7.4-9Z"/>
</svg>
