<?xml version="1.0" encoding="UTF-8"?>
<svg id="Layer_1" xmlns="http://www.w3.org/2000/svg" version="1.1" viewBox="0 0 608.1 669.9">
  <!-- Generator: Adobe Illustrator 29.1.0, SVG Export Plug-In . SVG Version: 2.1.0 Build 142)  -->
  <defs>
    <style>
      .st0 {
        fill: #e5e5e5;
      }
    </style>
  </defs>
  <path class="st0" d="M584.1,267.1v34.9l-13.3-13.3,13.3-21.6h0ZM548.2,291.2l-17.5,28.5h20.8l9.5-15.5,15.5,15.5h25v-86.3h-17.8l-26.2,42.3M486.9,233.3l-53.4,86.3h20.9l32.5-52.5v47.4l-3.2,5h20.9l53.1-86.3h-20.9l-32.2,52.6v-47.6l3-5h-20.8ZM405.8,233.3v86.3h17.8v-86.3h-17.8ZM396,301.8h-46.2v-68.5h-17.8v86.3h64v-17.8h0ZM289.1,253c3,1.3,5.7,3.2,8.1,5.4,2.3,2.3,4.1,5,5.4,8.1,1.3,3,2,6.4,2,9.9s-.7,6.9-2,9.9-3.2,5.8-5.4,8.1-5,4.1-8.1,5.4-6.4,2-9.8,2-6.9-.7-9.9-2-5.8-3.2-8.1-5.4-4.1-5-5.4-8.1-2-6.4-2-9.9.7-6.9,2-9.9,3.2-5.7,5.4-8.1c2.3-2.3,5-4.1,8.1-5.4s6.4-2,9.9-2,6.8.7,9.8,2ZM262.5,236.7c-5.3,2.3-9.8,5.3-13.8,9.3-4,3.8-7,8.5-9.3,13.8s-3.4,10.9-3.4,16.8,1.2,11.5,3.4,16.7c2.3,5.3,5.3,9.8,9.3,13.8,4,3.8,8.5,7,13.8,9.3s10.9,3.4,16.8,3.4,11.5-1.2,16.7-3.4c5.3-2.3,9.8-5.3,13.6-9.3,3.8-3.8,6.9-8.5,9.1-13.8s3.4-10.9,3.4-16.7-1.2-11.7-3.4-16.8c-2.3-5.3-5.3-9.8-9.1-13.8-3.8-3.8-8.3-7-13.6-9.3s-10.9-3.4-16.7-3.4-11.7,1.2-16.8,3.4h0ZM192.8,251c2.5,0,4.6.3,6.4.5,1.9.3,3.3.7,4.5,1.5,1.2.7,2.1,1.7,2.7,2.9.5,1.3.9,2.9.9,5v.8c0,2.1-.3,3.8-.9,5s-1.6,2.1-2.8,2.8l-10.7-18.6h0ZM161.8,233.3l22.1,38.4h-15.4v47.8h17.8v-30.2h8.1l17.4,30.2h20.5l-19.3-33.4c4-1.7,7-4.5,9-8.2s2.9-9.1,2.9-16.2v-.8c0-6.2-.8-11.1-2.3-14.8-1.5-3.7-3.8-6.5-6.9-8.3-3-2-7-3.2-11.8-3.7-4.8-.5-10.5-.8-17-.8h-25.2ZM134.2,267.1v34.9l-13.3-13.3,13.3-21.6h0ZM93.8,286.6l4.5,4.5-17.5,28.5h20.8l9.5-15.5,15.5,15.5h25v-81.2l.5-5h-18.3l-26.2,42.3-4.5-4.5-9.5,15.6h.1ZM30.3,236.7c-5.3,2.3-9.8,5.3-13.8,9.3-3.8,3.8-7,8.5-9.3,13.8s-3.4,10.9-3.4,16.7,1.2,11.7,3.4,16.8c2.3,5.3,5.3,9.8,9.3,13.8s8.5,7,13.8,9.3c5.3,2.3,10.9,3.4,16.8,3.4s11.4-1.1,16.6-3.3,9.7-5.3,13.6-9.1l-15.6-9.9c-2.1,1.5-4.4,2.7-6.9,3.4-2.4.8-5,1.2-7.7,1.2s-6.9-.7-9.9-2c-3.2-1.3-5.8-3.2-8.1-5.4s-4.1-5-5.4-8.1-2-6.4-2-9.9.7-6.9,2-9.9,3.2-5.7,5.4-8.1,5-4.1,8.1-5.4c3.2-1.3,6.5-2,9.9-2s6.1.5,8.9,1.7,5.3,2.7,7.6,4.5l15.8-9.3c-4-4.5-8.7-8.1-14.3-10.7s-11.5-4-18-4-11.7,1.2-16.8,3.4h.1Z"/>
  <path class="st0" d="M135.3,360.8c3,1.3,5.7,3.2,8.1,5.4,2.3,2.3,4.1,5,5.4,8.1s2,6.4,2,9.9-.7,6.9-2,9.9c-1.3,3-3.2,5.8-5.4,8.1s-5,4.1-8.1,5.4-6.4,2-9.8,2-6.9-.7-9.9-2-5.8-3.2-8.1-5.4-4.1-5-5.4-8.1-2-6.4-2-9.9.7-6.9,2-9.9,3.2-5.7,5.4-8.1c2.3-2.3,5-4.1,8.1-5.4s6.4-2,9.9-2,6.8.7,9.8,2ZM108.6,344.3c-5.3,2.3-9.8,5.3-13.8,9.3-4,3.8-7,8.5-9.3,13.8s-3.4,10.9-3.4,16.8,1.2,11.5,3.4,16.7c2.3,5.3,5.3,9.8,9.3,13.8,4,3.8,8.5,7,13.8,9.3s10.9,3.4,16.8,3.4,11.5-1.2,16.7-3.4c5.3-2.3,9.8-5.3,13.6-9.3,3.8-3.8,6.9-8.5,9.1-13.8s3.4-10.9,3.4-16.7-1.2-11.7-3.4-16.8c-2.3-5.3-5.3-9.8-9.1-13.8-3.8-3.8-8.3-7-13.6-9.3s-10.9-3.4-16.7-3.4-11.7,1.2-16.8,3.4ZM30.3,344.3c-5.3,2.3-9.8,5.3-13.8,9.3s-7,8.5-9.3,13.8-3.4,10.9-3.4,16.7,1.2,11.7,3.4,16.8c2.3,5.3,5.3,9.8,9.3,13.8s8.5,7,13.8,9.3,10.9,3.4,16.8,3.4,11.4-1.1,16.6-3.3,9.7-5.3,13.6-9.1l-15.6-9.9c-2.1,1.5-4.4,2.7-6.9,3.4-2.4.8-5,1.2-7.7,1.2s-6.9-.7-9.9-2c-3.2-1.3-5.8-3.2-8.1-5.4-2.3-2.3-4.1-5-5.4-8.1s-2-6.4-2-9.9.7-6.9,2-9.9,3.2-5.7,5.4-8.1c2.3-2.3,5-4.1,8.1-5.4,3.2-1.3,6.5-2,9.9-2s6.1.5,8.9,1.7c2.8,1.2,5.3,2.7,7.6,4.5l15.8-9.3c-4-4.5-8.7-8.1-14.3-10.7s-11.5-4-18-4-11.7,1.2-16.8,3.4h.1Z"/>
  <polyline class="st0" points="252.5 374.8 252.5 427.3 255.7 427.3 234.1 427.3 200.3 374.8 200.3 427.3 181.9 427.3 181.9 346.1 181.5 341 200.3 341 234 393.5 234.1 346.1 233.8 341 252.5 341"/>
  <path class="st0" d="M605.8,408.2h-46.2v-68.5h-17.8v86.3h64v-17.8h0ZM496.2,359.4c3,1.3,5.7,3.2,8.1,5.4,2.3,2.3,4.1,5,5.4,8.1s2,6.4,2,9.9-.7,6.9-2,9.9-3.2,5.8-5.4,8.1c-2.3,2.3-5,4.1-8.1,5.4-3,1.3-6.4,2-9.8,2s-6.9-.7-9.9-2c-3-1.3-5.8-3.2-8.1-5.4s-4.1-5-5.4-8.1-2-6.4-2-9.9.7-6.9,2-9.9,3.2-5.7,5.4-8.1c2.3-2.3,5-4.1,8.1-5.4,3-1.3,6.4-2,9.9-2s6.8.7,9.8,2ZM469.6,343.1c-5.3,2.3-9.8,5.3-13.8,9.3-4,3.8-7,8.5-9.3,13.8-2.3,5.3-3.4,10.9-3.4,16.8s1.2,11.5,3.4,16.7c2.3,5.3,5.3,9.8,9.3,13.8,4,3.8,8.5,7,13.8,9.3,5.3,2.3,10.9,3.4,16.8,3.4s11.5-1.2,16.7-3.4c5.3-2.3,9.8-5.3,13.6-9.3,3.8-3.8,6.9-8.5,9.1-13.8,2.3-5.3,3.4-10.9,3.4-16.7s-1.2-11.7-3.4-16.8c-2.3-5.3-5.3-9.8-9.1-13.8-3.8-3.8-8.3-7-13.6-9.3-5.3-2.3-10.9-3.4-16.7-3.4s-11.7,1.2-16.8,3.4h0ZM394.8,357.5c2.5,0,4.6.3,6.4.5,1.9.3,3.3.7,4.5,1.5,1.2.7,2.1,1.7,2.7,2.9.5,1.3.9,2.9.9,5v.9c0,2.1-.3,3.8-.9,5-.7,1.2-1.6,2.1-2.8,2.8l-10.7-18.6h0ZM363.8,339.7l22.1,38.4h-15.4v47.8h17.8v-30.2h8.1l17.4,30.2h20.5l-19.3-33.4c4-1.7,7-4.5,9-8.2,2-3.7,2.9-9.1,2.9-16.2v-.9c0-6.2-.8-11.1-2.3-14.8-1.5-3.7-3.8-6.5-6.9-8.3-3-2-7-3.2-11.8-3.7-4.8-.5-10.5-.8-17-.8h-25.2ZM339.3,339.7h-71.6v17.8h34.2v68.5h17.8v-68.5h34.2l-14.6-17.8Z"/>
</svg>
